<?xml version="1.0" encoding="UTF-8"?>
<svg id="a" xmlns="http://www.w3.org/2000/svg" version="1.1" viewBox="0 0 100 25">
  <!-- Generator: Adobe Illustrator 30.1.0, SVG Export Plug-In . SVG Version: 2.1.1 Build 136)  -->
  <defs>
    <style>
      .st0 {
        isolation: isolate;
      }

      .st1 {
        mix-blend-mode: multiply;
      }

      .st2, .st3 {
        fill: #fff;
      }

      .st4 {
        opacity: .15;
      }

      .st3 {
        stroke: #fff;
        stroke-miterlimit: 10;
        stroke-width: .1px;
      }
    </style>
  </defs>
  <g>
    <g class="st0">
      <g id="b">
        <g class="st4">
          <path class="st2" d="M19.44,19.5c.05.18.05.36,0,.53-.12.3-.35.54-.65.68s-.64.18-.96.13l-.38.09c-.13.04-.27.06-.4.09-.18.05-.36.06-.54.05h-.05l-.25.08c-.31.1-.63.15-.95.16-.12,0-.24,0-.35-.04l-.12.04-.38.04c-.17.05-.33.08-.51.08h-1.84c-.06.03-.13.04-.19.06-.19.04-.37.04-.56,0-.11,0-.22-.03-.31-.06h-.08c-.28-.03-.58-.03-.86,0h-.56c-.28,0-.55-.06-.83-.09h-.12c-.47,0-.94-.09-1.41-.12-.09,0-.18,0-.27-.03h-.28c-.13,0-.25-.03-.36-.07h-.12c-.24,0-.47-.04-.7-.09-.26-.06-.51-.12-.78-.16l-.15-.05h0c-.17,0-.33-.03-.49-.06-.23-.05-.43-.15-.61-.29l-.22-.23c-.12-.17-.19-.36-.19-.56v-.07c-1.31.33-2.08.76-2.08,1.23,0,1.12,4.74,2.03,10.58,2.03s10.6-.92,10.6-2.04c0-.5-1-.96-2.6-1.32h-.03Z"/>
          <g class="st1">
            <path class="st2" d="M18.78,20.71c-.3.14-.64.18-.96.13l-.38.09c-.13.04-.27.06-.4.09-.18.05-.36.06-.54.05h-.05l-.25.08c-.31.1-.63.15-.95.16-.12,0-.24,0-.35-.04l-.12.04-.38.04c-.17.05-.33.08-.51.08h-1.84c-.06.03-.13.04-.19.06-.19.04-.37.04-.56,0-.11,0-.22-.03-.31-.06h-.08c-.28-.03-.58-.03-.86,0h-.56c-.28,0-.55-.06-.83-.09h-.11c-.47,0-.94-.09-1.41-.12-.09,0-.18,0-.27-.03h-.28c-.13,0-.25-.03-.36-.07h-.12c-.24,0-.47-.04-.7-.09-.26-.06-.51-.12-.78-.16l-.15-.05h0c-.17,0-.33-.03-.49-.06-.23-.05-.43-.15-.61-.29l-.06-.06c-.07.07-.11.16-.11.25,0,.85,3.61,1.54,8.06,1.54s8.03-.68,8.03-1.54c0-.09-.04-.18-.1-.24-.11.12-.25.22-.39.28h-.03Z"/>
          </g>
        </g>
        <path class="st2" d="M14.19,6.95v-.19c0-.09.03-.18.06-.26-2.98.42-6.01.25-8.93-.52v1.02c1.87.48,3.79.72,5.72.71,1.06,0,2.12-.07,3.18-.21-.07-.18-.08-.38-.03-.56h0Z"/>
        <path class="st2" d="M17.13,8.07v-.12c-.31.09-.61.16-.95.23v.06c-.06.08-.13.16-.2.22l-.11.1c-.08.12-.18.22-.28.3s-.21.19-.3.28l-.03.04c-.11.17-.32.22-.49.12-.08-.05-.13-.12-.16-.21-.03-.21-.03-.41,0-.61h0c-3.05.46-6.15.3-9.14-.46h0c0,.33-.02.67-.06,1,1.84.46,3.73.69,5.62.68,2.05,0,4.11-.25,6.1-.76v-.89s0,.02,0,.02Z"/>
        <path class="st2" d="M19.14,14.77v-.04c-5.25,1.38-10.77,1.4-16.03.04,0,.4,0,.81-.06,1.23,2.56.66,5.2.97,7.83.95,2.8,0,5.59-.33,8.31-1.01-.03-.4-.04-.81-.06-1.17h.01Z"/>
        <path class="st2" d="M19.14,17.07v-.05c-5.25,1.38-10.77,1.4-16.03.05,0,.4,0,.81-.06,1.23,2.56.65,5.2.97,7.83.95,2.8,0,5.58-.35,8.29-1.04-.02-.37-.03-.76-.05-1.14h.02Z"/>
        <path class="st2" d="M17.22,9.93v-2.15c-.06-.04-.12-.08-.17-.13l-.06-.06v2.84c.02.13,0,.26-.04.36-.05.11-.13.2-.24.26-.13.05-.26.1-.38.13-.54.17-1.1.3-1.66.41-2.83.47-5.72.31-8.48-.45l-.21-.06c-.24-.04-.42-.23-.45-.46v-4.07c0-1,0-2-.04-3.01.36.24.77.39,1.19.46.51.11,1.02.2,1.54.26,1.46.17,2.95.22,4.42.16l.15-.07h.05c.14-.09.29-.13.46-.13h.11l.14-.08-.72.03c-1.53.09-3.08.06-4.6-.1-.56-.07-2.46-.31-2.68-.84.26-.52,2.1-.71,2.69-.8,1.72-.18,3.46-.22,5.19-.12,0-.11,0-.23.03-.33-1.76-.18-3.54-.16-5.3.06-.54.06-1.07.16-1.59.28-.29.07-.59.17-.86.3-.11.05-.21.12-.3.2-.16.15-.11.36-.11.56,0,1.05,0,2.1-.04,3.16v3.87c-.04.34.13.68.43.85.13.07.26.12.39.16,1.68.45,3.41.68,5.15.68,1.74.02,3.47-.22,5.15-.68l.21-.06c.25-.05.45-.22.56-.45.06-.15.09-.31.07-.47v-.53.02Z"/>
        <path class="st2" d="M11.31,12.18h-.09c-1.74,0-3.47-.24-5.15-.68l-.15-.06c-.11-.02-.22-.06-.31-.11-.32-.19-.51-.55-.46-.92V3.26c-.04-.18,0-.35.13-.49.1-.09.21-.16.31-.22.28-.13.58-.24.87-.3.53-.14,1.07-.23,1.61-.28,1.78-.22,3.59-.23,5.36-.04h.09l-.04.09c-.04.08-.06.17-.07.26v.06h-.07c-1.73-.1-3.46-.06-5.18.11l-.2.03c-.65.09-2.15.28-2.42.7.18.3,1.05.56,2.59.76h0c1.52.16,3.06.19,4.59.1h.07l.68-.04h.35l-.31.16s-.09.05-.12.07h-.04l-.11.03h-.04c-.15,0-.29.04-.41.12h-.06s-.09.04-.14.07h-.03c-1.48.07-2.97.02-4.44-.16-.52-.04-1.04-.11-1.56-.21h-.16c-.33-.07-.65-.19-.94-.35,0,1,.03,2,.04,2.87s0,1.61,0,2.4v1.67c.03.21.19.36.39.4l.22.06c2.75.76,5.63.91,8.44.44.56-.1,1.11-.24,1.65-.4l.12-.04c.09-.02.17-.05.25-.09.1-.05.17-.13.21-.23.04-.11.06-.23.04-.33v-2.99l.11.1s.05.04.07.06c.05.04.1.08.15.12h.04v2.69c0,.18-.02.34-.09.5-.12.25-.34.43-.61.49l-.21.06c-1.63.46-3.31.69-5,.69h.02v-.02ZM5.28,10.44h0c-.04.31.11.63.39.79.09.05.19.08.28.1l.14.04c1.67.45,3.4.69,5.13.7,1.73,0,3.45-.23,5.12-.7l.21-.06c.23-.05.42-.2.52-.4.06-.14.08-.29.07-.45v-2.61l-.11-.07v2.68c0,.14,0,.28-.06.4s-.15.23-.27.28c-.09.04-.18.08-.28.1l-.12.04c-.55.17-1.11.3-1.67.41-2.84.47-5.74.31-8.51-.45l-.21-.06c-.27-.05-.47-.26-.5-.52v-4.09c0-.89,0-1.96-.04-3.01v-.17l.12.1c.3.21.64.34,1,.4l.16.04c.52.12,1.04.19,1.53.26,1.46.17,2.93.22,4.39.16.04-.03.09-.05.14-.07h0c.06-.04.13-.07.21-.09h-.15c-1.54.09-3.1.05-4.63-.12h0c-1.07-.14-2.52-.38-2.72-.87h0c.22-.45,1.35-.65,2.54-.81h.2c1.71-.18,3.43-.22,5.14-.12v-.14c-1.73-.17-3.47-.14-5.19.07-.54.06-1.07.15-1.59.28-.29.07-.58.17-.85.29-.1.05-.2.12-.28.19-.11.09-.1.22-.09.37v6.74c-.04.17-.04.3-.05.36h.03Z"/>
        <path class="st2" d="M15.56,2.5c.24.04.46.1.7.17.02-.05.05-.09.08-.14-.2-.06-.39-.1-.53-.13s-.3-.07-.45-.09c.08.05.15.12.21.19h-.01Z"/>
        <path class="st2" d="M13.28,4.17c-.52.09-1.01.32-1.41.67-.1.09-.2.19-.28.28-.04.05-.08.1-.12.16s-.06.06-.03.1.06,0,.09,0h.09l.23-.04c.13-.02.26-.03.38-.02.14,0,.28,0,.41.04.27.09.52.22.74.39.22.18.45.33.69.48.04.03.08.04.12.06-.07.26-.09.52-.06.79.02.23.07.44.14.65.08.19.14.38.18.58v.04h0c.03.2.03.39.06.58,0,.1.04.2.09.28s.14.12.23.09c.09-.04.17-.09.23-.16l.26-.22c.33-.28.65-.58.94-.89.14-.16.28-.32.41-.5l.08-.12s.08.09.12.12c.11.11.23.2.35.27.13.07.27.13.41.18.28.09.61.15.85.27.27.1.49.28.66.5.08.11.14.22.19.33.03.07.06.13.1.19,0,.04.04.07.06.1.02.02.04.04.07.06.03,0,.06,0,.07-.04l.04-.19c.05-.24.06-.48.05-.73-.04-.49-.2-.96-.45-1.38-.28-.43-.66-.79-1.11-1.03l.17-.03c.16-.05.32-.1.47-.17.33-.15.67-.31,1-.46l1.03-.49c.12-.06.31-.14.3-.31s-.19-.21-.29-.27c-.3-.18-.63-.33-.95-.47s-.66-.23-1-.26c-.27-.02-.52,0-.78.06v-.12c.06-.43.12-.85.18-1.29l.09-.61c0-.16.08-.36-.04-.5-.13-.12-.31-.14-.46-.05l-.26.13c-.09.05-.17.1-.26.15-.32.21-.6.46-.83.77-.22.29-.38.61-.5.95-.02-.04-.04-.08-.07-.12-.16-.29-.38-.54-.65-.73-.3-.17-.65-.28-.99-.33-.17-.03-.34-.05-.51-.06-.07,0-.15,0-.22.03-.07.03-.12.08-.16.14-.07.14-.07.29,0,.43s.16.28.26.4c.18.27.32.55.45.85.07.16.15.31.23.47-.35-.07-.71-.07-1.06,0h-.03ZM16.34,3.84c.1.25.17.51.2.78,0,.26,0,.68-.23.84.09-.28.09-.59,0-.87s-.21-.55-.35-.8c.16.28.27.56.34.86.08.3.03.63-.12.9-.03-.7-.39-1.35-.97-1.74.54.38.86,1,.89,1.66-.26-.68-.82-1.19-1.5-1.4.7.22,1.25.76,1.48,1.45v.14c-.08-.15-.18-.28-.28-.39s-.28-.18-.43-.16h-.12s-.05-.02-.06-.04c-.36-.3-.65-.69-.84-1.12-.19-.42-.4-.84-.66-1.23-.1-.11-.18-.24-.24-.36v-.07c-.02-.12.02-.25.11-.31.09-.06.2-.08.3-.06.18,0,.34.03.51.06.37.05.73.19,1.04.39.45.38.78.88.93,1.45h-.02l.02.02ZM18.3,1.82l-.09.61-.09.61c0,.21-.05.4-.09.61h0c-.29.07-.57.2-.82.35-.15.1-.28.21-.4.33.16-.26.29-.51.42-.78.19-.42.33-.86.42-1.32-.11.44-.26.88-.45,1.3-.19.34-.38.67-.61.98-.02-.18-.06-.35-.12-.53.06-.26.06-.52,0-.78.03.23,0,.45-.05.67-.02-.04-.03-.07-.04-.11-.09-.24-.19-.46-.3-.68h0s0-.08.04-.12c.13-.34.3-.66.53-.94.24-.28.53-.52.85-.71l.25-.14c.08-.04.16-.08.25-.11.15-.04.33,0,.36.17v.26l-.06.3h0v.03ZM18.05,6.01h-.46c-.17,0-.33-.03-.49-.07l-.51-.12c-.11-.07-.24-.11-.36-.11h0c.38-.17.82-.22,1.23-.13.17,0,.32,0,.48-.08-.15.06-.31.08-.48.06-.37-.09-.76-.09-1.12,0l.06-.07c.09-.05.19-.1.28-.14.46-.2.97-.27,1.46-.21.25.03.49.1.72.21-.23-.12-.47-.2-.72-.23-.56-.08-1.13,0-1.64.25.14-.12.28-.22.43-.32.89-.58,1.98-.77,3.02-.53-.67-.17-1.36-.17-2.02,0-.52.17-.99.43-1.41.79,0-.04.03-.08.04-.12.04-.14.07-.28.07-.43v-.07s.05-.06.07-.09c.39-.46.93-.78,1.53-.87.29-.05.6-.05.89,0,.33.06.66.17.96.31.16.07.31.15.46.24l.22.12.21.12s.1.07.11.13c0,.08-.06.14-.11.17l-.24.12-.25.11-1,.47-.5.24c-.15.08-.29.14-.45.2-.16.05-.32.07-.5.07h.03v-.02ZM16.78,7.36c.07-.11.12-.22.17-.33h0c.19.11.37.21.57.29-.19-.12-.37-.24-.55-.36.03-.07.04-.14.06-.21.48.13.9.43,1.18.85-.27-.44-.69-.77-1.18-.91v-.28c.96.25,1.77.88,2.24,1.76-.46-.9-1.29-1.57-2.27-1.84-.02-.08-.06-.15-.1-.22.43.04.85.17,1.23.38.14.08.25.2.32.33-.08-.14-.18-.26-.31-.34-.39-.25-.84-.4-1.3-.45-.03-.04-.07-.08-.12-.11h.09c.17.05.34.08.51.11.17.02.33.03.5.04h.22c.06.03.12.06.18.1.45.27.83.64,1.08,1.1.23.41.35.88.36,1.36,0,.24-.03.47-.09.71h0l-.05-.06c-.04-.06-.08-.13-.11-.2l-.06-.08c-.03-.06-.06-.12-.09-.17-.07-.11-.15-.22-.25-.3-.21-.19-.46-.32-.73-.4-.28-.09-.56-.15-.84-.26-.27-.11-.5-.28-.68-.5h.02ZM14.25,6.29c.09-.33.28-.64.55-.85.17-.15.39-.23.61-.23s.39.22.51.39l.06.1c-.15-.07-.3-.11-.46-.12-.57.17-.98.65-1.06,1.23.08-.36.28-.7.58-.92.19-.2.48-.27.75-.16l.14.06c-.43.25-.78.64-.95,1.1.21-.48.59-.86,1.06-1.07.07.21.09.43.06.65-.06.34-.21.66-.41.93-.22.27-.41.55-.56.85.1-.21.23-.4.36-.58.45-.43.7-1.03.67-1.66.11.21.18.44.19.68,0,.32-.1.64-.31.87.24-.24.36-.55.35-.87,0-.31-.1-.61-.25-.88h.16c.28.04.53.24.65.5.07.16.08.32.06.48-.04.19-.11.36-.21.51-.11.17-.22.32-.35.47-.14.16-.28.31-.42.46-.28.29-.61.56-.92.84l-.12.11-.11.07s-.08.02-.11,0c-.04-.02-.07-.05-.09-.09-.04-.09-.06-.19-.07-.28v-.29c0-.1,0-.18-.03-.27.12-.26.28-.49.48-.7-.17.16-.31.33-.45.52l-.06.09c0-.07-.04-.15-.06-.22-.06-.19-.13-.37-.17-.56-.11-.37-.13-.78-.04-1.16h-.03ZM12.07,4.75c.42-.3.9-.49,1.41-.55.29-.03.59,0,.88.06.06.1.11.2.17.28.16.25.35.46.58.65h-.1c-.27-.15-.55-.26-.85-.34-.25-.06-.49-.09-.75-.09s-.52,0-.78.07c.26-.05.51-.08.78-.06.26.02.51.07.76.14.28.09.54.21.8.34l-.11.06c-.06.03-.12.08-.17.12l-.13-.04c-.26-.07-.53-.09-.8-.06.13-.02.27-.02.4,0,.13,0,.27.04.38.09.04,0,.07.02.11.04l-.07.07h0c-.18.19-.3.4-.37.65-.1-.05-.2-.1-.28-.16-.23-.16-.43-.33-.66-.48-.22-.16-.47-.27-.74-.31-.13-.02-.27-.02-.4,0-.06,0-.13,0-.19.04l-.12.03c-.08,0-.16.02-.24.02h-.07c.16-.21.33-.4.54-.56h.02Z"/>
        <path class="st2" d="M14.58,9.22c-.05-.09-.08-.19-.09-.28,0-.09,0-.2-.03-.28s0-.19,0-.28h0v-.05c-.04-.15-.08-.28-.13-.42,0-.05-.03-.1-.05-.16-.07-.2-.12-.4-.14-.61-.03-.27,0-.52.06-.78l-.15-.11c-.19-.11-.36-.23-.53-.36l-.16-.12c-.22-.18-.46-.3-.73-.38-.14-.04-.28-.05-.41-.04-.13,0-.26.02-.37.06-.08.02-.16.04-.24.04h-.12s-.08,0-.1-.04c-.03-.04,0-.08,0-.11h0l.12-.16c.09-.11.18-.2.28-.28.4-.34.89-.58,1.42-.67.34-.06.69-.06,1.02,0-.07-.14-.14-.29-.21-.43h0c-.11-.29-.25-.59-.4-.85-.02-.04-.04-.07-.07-.1-.08-.09-.14-.2-.19-.3-.07-.14-.07-.3,0-.44.04-.07.1-.12.17-.15s.15-.04.22-.04c.18,0,.34.03.51.06.35.06.7.18,1,.36.28.17.52.4.7.69.02.02.04.05.05.08h0c.11-.33.28-.64.48-.92.24-.3.52-.57.85-.77l.26-.16h0c.08-.04.16-.09.24-.12.16-.09.35-.06.48.06.09.13.11.29.06.44v.07l-.09.61-.06.41c-.04.28-.08.61-.12.87v.09c.25-.05.51-.07.76-.05.35.03.69.12,1.01.26s.64.29.95.46h.04c.11.06.25.13.26.27s-.17.27-.28.31l-1.05.5-.3.15-.7.32c-.16.07-.31.13-.48.17h-.12c.43.25.81.6,1.07,1.02.26.41.41.89.45,1.39.02.25,0,.49-.04.73,0,.06-.03.12-.04.18,0,.02-.02.04-.04.06h-.04s-.05-.03-.07-.06l-.06-.1c0-.06-.07-.12-.11-.19-.05-.12-.11-.24-.19-.33-.17-.23-.39-.39-.66-.5-.17-.07-.35-.12-.52-.17l-.33-.1c-.15-.04-.28-.1-.41-.17-.13-.08-.25-.17-.35-.28l-.11-.11-.07.1c-.13.18-.27.34-.41.5-.3.34-.64.67-.99.97l-.25.22h-.04c-.06.06-.12.1-.2.13h-.08s-.11-.03-.14-.07l-.02-.03h.03ZM16.75,7.41l.12.13c.11.1.23.19.35.27.13.08.27.13.41.17l.33.1c.18.05.35.1.53.17.27.11.5.28.67.51.08.1.15.22.19.33.03.07.06.13.1.19l.06.09s.03.04.06.05h0v-.03c.02-.06.03-.12.04-.18.05-.24.06-.48.04-.73-.04-.48-.2-.95-.45-1.37-.28-.43-.65-.79-1.1-1.02h-.05.05l.17-.03c.17-.04.32-.1.47-.17l.7-.32.3-.15,1.05-.49c.12-.06.28-.14.27-.28s-.14-.19-.24-.24h-.04c-.3-.17-.63-.32-.95-.46-.31-.14-.66-.23-1-.26-.27-.02-.52,0-.78.06h0v-.12c.04-.28.09-.58.12-.87l.11-.5.07-.61v-.07c.07-.14.07-.3,0-.44-.13-.1-.3-.12-.45-.04l-.24.12h0c-.1.05-.18.1-.26.15-.31.21-.59.46-.82.76-.22.28-.38.61-.5.94v.04l-.04-.07-.05-.08c-.19-.28-.43-.52-.73-.69s-.65-.28-.99-.32c-.17-.03-.33-.05-.51-.06-.07-.02-.14-.02-.21,0-.06.03-.12.08-.16.14-.06.13-.06.28,0,.41.05.11.11.21.19.3.03.03.05.06.07.1.18.27.32.54.45.83h0c.07.16.15.31.23.47h-.04c-.34-.07-.7-.07-1.04,0-.52.09-1.01.32-1.41.66-.1.09-.2.19-.28.28s-.08.11-.12.16h0s-.04.06,0,.07h.14c.08,0,.17.02.25.02.13-.03.26-.05.38-.06.14,0,.28,0,.41.05.28.08.52.22.75.39l.16.12c.17.14.34.26.53.36l.12.06h0c-.06.26-.09.52-.06.78.03.22.07.43.14.65,0,.05.03.1.05.16.05.14.1.28.13.43h0v.04h0v.28c0,.09,0,.2.03.29,0,.1.04.19.09.27.04.07.13.11.21.09.07-.03.13-.07.19-.12l.04-.03.25-.22c.33-.28.65-.58.94-.89.15-.16.28-.32.41-.5.03-.04.06-.08.08-.12h0l.07.07h.03l-.03-.02ZM14.71,9.25s-.07-.06-.09-.11c-.04-.09-.06-.19-.07-.28v-.29c0-.09-.02-.18-.04-.27h0c.07-.13.14-.25.22-.36-.06.07-.11.14-.16.22l-.05.08v.04-.04c0-.08-.04-.16-.06-.23l-.05-.13c-.04-.14-.09-.28-.13-.43-.09-.37-.09-.77,0-1.14.09-.34.28-.64.56-.85.18-.15.39-.23.61-.24.23,0,.38.2.52.4l.06.11v.04h-.04s-.1-.03-.14-.06c-.1-.05-.21-.07-.31-.07-.24.04-.45.16-.61.34l.12-.11c.2-.2.49-.27.76-.16h.03l.11.05h.04-.04c-.22.11-.41.27-.56.46.18-.22.4-.37.66-.46h0c.07.22.08.44.06.66-.05.27-.16.51-.3.73.24-.34.34-.77.31-1.18v-.09l.04.09c.12.21.18.44.19.68v.07-.07c0-.3-.1-.61-.26-.87h.17c.29.04.54.24.66.51.07.16.09.33.06.5-.03.19-.11.36-.21.51-.1.17-.22.32-.35.47-.13.16-.27.3-.42.46-.3.3-.61.58-.92.84l-.12.11s-.06.05-.1.07h-.15ZM16.24,5.8h-.13c.15.27.23.57.24.87,0,.33-.12.66-.35.89h0c.22-.24.33-.55.31-.86,0-.22-.05-.42-.14-.61,0,.6-.26,1.17-.68,1.58-.15.18-.27.36-.36.57h0c.13-.28.29-.53.49-.77l.07-.1c.21-.28.34-.59.4-.92.03-.21.02-.41-.04-.61-.46.22-.84.59-1.04,1.06h-.03c.17-.48.49-.88.91-1.15l-.07-.03h0c-.25-.1-.54-.04-.73.16-.29.24-.49.56-.58.92h-.03c.09-.59.51-1.06,1.08-1.23.11,0,.23.03.32.07l.1.04-.1-.07c-.1-.2-.28-.34-.49-.38-.23,0-.44.09-.61.23-.28.22-.46.51-.55.85-.09.36-.09.75,0,1.11h0c.04.15.09.29.13.43.02.04.03.09.04.14.02.06.04.12.06.19l.04-.05c.13-.2.28-.37.45-.53h0c-.19.21-.35.43-.48.69.02.09.03.18.04.27v.28c0,.1.03.19.07.28,0,.04.04.07.07.09s.07.02.1,0c.04,0,.07-.04.1-.07l.12-.1c.29-.26.61-.53.92-.84.16-.16.28-.3.41-.46.13-.15.25-.3.35-.47.1-.16.17-.32.21-.5.03-.16,0-.32-.05-.48-.11-.26-.34-.44-.61-.49l.05.02h-.02v-.02ZM19.56,9.36s-.04-.04-.05-.06c-.04-.06-.08-.13-.11-.2,0-.04-.03-.08-.05-.11-.03-.06-.06-.12-.09-.17-.07-.11-.15-.21-.25-.29-.21-.19-.45-.32-.73-.4l-.3-.09c-.17-.05-.35-.1-.53-.17-.14-.06-.27-.13-.38-.22h0c-.12-.08-.22-.18-.3-.28h0c.07-.11.13-.22.17-.33h0l.28.16-.28-.2h0c.02-.07.04-.14.05-.21h0c.26.07.49.18.7.33-.21-.17-.44-.29-.7-.37h0v-.29h0c.5.16.96.39,1.39.71-.42-.33-.9-.59-1.41-.76h0c-.02-.08-.06-.15-.1-.21v-.03h.2c.25.04.49.09.73.17-.24-.09-.48-.16-.73-.21l-.22-.04h0s-.07-.08-.11-.11l-.05-.05.16.04c.18.04.34.09.51.11s.33.03.5.03h.22l.19.1c.87.51,1.42,1.44,1.44,2.46,0,.23-.05.44-.12.66v.04h-.03ZM17.83,6.11h-.51c-.17,0-.33-.07-.51-.11h0s.05.04.06.07l.22.04c.39.05.77.19,1.09.41.14.09.25.21.32.34h0c-.08-.14-.19-.25-.31-.32-.32-.2-.7-.32-1.07-.35h-.12c.04.06.06.12.09.18.97.28,1.8.94,2.27,1.84h-.03c-.47-.85-1.27-1.48-2.2-1.74v.24c.49.15.9.48,1.17.92h0c-.28-.41-.68-.71-1.15-.84,0,.05,0,.11-.04.17.17.12.33.24.53.35h0c-.19-.09-.37-.18-.56-.28-.04.11-.1.22-.16.31.09.1.19.2.29.28h0c.12.08.25.16.37.21.18.07.35.12.53.17l.3.09c.28.08.52.22.74.4.15.14.26.3.34.48v.11c.03.07.06.13.11.19v.04c.06-.22.09-.45.08-.68,0-.47-.14-.93-.36-1.35-.25-.45-.62-.84-1.07-1.09l-.18-.1-.22.02h-.03.01ZM14.2,6.23c-.1-.05-.2-.11-.28-.17-.12-.08-.24-.17-.34-.26l-.32-.24c-.22-.16-.46-.27-.73-.31-.13-.02-.27-.02-.39,0h-.31l-.24.04h-.1l.04-.06h0c.16-.21.34-.39.55-.55.41-.3.9-.49,1.41-.55.3-.03.6,0,.89.06h0c.07.12.12.21.17.28.17.24.35.44.58.61h0s-.06.02-.09.03h0c-.27-.15-.55-.26-.85-.34l-.14.06.16.04c.28.09.54.21.8.34h0l-.1.06h0c-.06.03-.12.08-.17.12h0l-.12-.03h-.08.08l.09.03h.04l-.07.07h0c-.17.19-.29.41-.36.65h0l-.11.09v.03h-.01ZM14.54,5.45c-.13-.04-.26-.07-.38-.09h-.4v-.06h.4c.14,0,.27.03.4.07l.12.04h0s.11-.09.17-.12h0l.07-.04c-.25-.14-.5-.25-.77-.32-.24-.07-.47-.12-.71-.14-.26-.02-.52,0-.77.06v-.03c.25-.07.51-.1.77-.08.26,0,.52.05.77.12.29.09.57.2.85.34h.06c-.22-.18-.4-.38-.56-.61l-.17-.28c-.28-.07-.58-.09-.87-.06-.51.05-.99.24-1.41.54-.21.16-.39.33-.55.54h.04l.23-.04h.12l.2-.03c.14-.02.28-.02.4,0,.27.05.52.16.74.31l.32.24c.11.09.22.17.33.26.09.06.18.11.28.16.07-.25.2-.46.36-.65h0l.06-.06-.11-.07h.02-.01ZM17.07,5.96l-.3-.08-.2-.05h0c-.11-.07-.23-.1-.35-.11h-.06.05c.26-.13.55-.18.84-.16-.24-.03-.46,0-.69.07h-.06l.04-.05s.04-.04.05-.07h0c.09-.05.19-.1.28-.14.26-.11.52-.18.8-.22-.32.04-.65.13-.95.26l-.11.06.09-.08c.16-.12.29-.24.43-.32.38-.28.81-.46,1.27-.56l-.26.06c-.51.15-.99.4-1.41.73l-.05.04.05-.04s0-.08.04-.12c.04-.14.07-.28.07-.42v-.11h0v-.04l.06-.06c.4-.46.94-.78,1.54-.88.29-.05.6-.05.89,0,.33.06.66.17.97.3l.46.24.22.12h.06l.16.09c.06.03.1.09.11.15,0,.07,0,.13-.12.19-.06.03-.11.06-.17.09l-.06.03-1.78.85c-.14.06-.29.14-.45.19h0c-.16.06-.31.1-.48.11h-.66c-.11-.02-.21-.04-.31-.07h0v.02-.02ZM18.06,5.99c.16,0,.32-.05.47-.11h0c.16-.06.31-.13.45-.19l1.74-.83h.06c.06-.03.11-.06.17-.09.08-.05.11-.1.11-.16,0-.05-.05-.1-.1-.12l-.15-.12h-.06l-.22-.12-.46-.24c-.3-.14-.63-.25-.95-.3-.29-.05-.6-.05-.89,0-.6.11-1.14.41-1.53.87l-.05.06h0v.11c0,.15-.03.29-.07.43v.06c.41-.34.88-.6,1.39-.76.67-.17,1.37-.17,2.03,0v.03c-.29-.07-.6-.1-.9-.09-.75-.03-1.49.19-2.1.61l-.33.26c.49-.2,1.02-.27,1.54-.21.26.04.5.12.73.24h0c-.23-.11-.47-.18-.72-.21h0c-.49-.05-.98.02-1.43.22-.1.03-.19.08-.28.13h0c.34-.08.71-.08,1.05,0h0c.16.02.32,0,.47-.06v.03c-.16.07-.32.1-.49.08h-.05c-.39-.08-.8-.04-1.16.12h0c.11,0,.21.05.3.1l.21.05.3.08c.16.04.32.06.49.07h.45v.04h-.02v.02ZM16.04,5.71c-.08-.14-.18-.28-.28-.38-.11-.12-.27-.18-.42-.16h-.11s-.05-.02-.07-.04c-.36-.3-.65-.69-.84-1.12l-.15-.3c-.14-.32-.31-.64-.51-.93l-.04-.06c-.08-.1-.14-.21-.19-.32v-.08c-.02-.13.02-.26.12-.33.1-.05.21-.07.31-.06.18,0,.35.03.52.06.37.06.73.2,1.04.4h0c.47.37.82.88.98,1.46.1.26.17.52.19.79,0,.16.03.66-.23.85l-.04.03v-.05c.07-.2.09-.4.06-.61.03.26-.02.52-.16.75v.04-.05c-.02-.36-.13-.73-.31-1.04.16.29.25.62.27.95v.09-.09c-.15-.36-.38-.68-.68-.92.3.27.53.61.66.99.02.04.02.09,0,.13,0,.02-.02.03-.04.04h0l-.09-.02v-.02ZM16.11,5.39c-.05-.62-.37-1.19-.87-1.55h0c.57.39.92,1.01.97,1.7.13-.27.17-.57.1-.85-.08-.3-.2-.59-.35-.85h0c.16.26.28.53.36.81.08.27.08.55,0,.83.18-.25.25-.54.21-.84-.03-.27-.09-.53-.19-.78-.17-.57-.51-1.08-.97-1.44-.31-.21-.67-.33-1.03-.39-.17-.03-.34-.05-.51-.06-.1-.02-.21,0-.29.06-.07.08-.1.2-.07.3v.08c.05.12.11.22.19.31l.04.05c.2.3.37.62.51.94l.15.3c.19.43.46.81.83,1.11l.06.03h.09c.17-.02.33.04.45.16.11.12.21.25.28.38h0v-.1c-.23-.69-.78-1.23-1.46-1.44v-.06c.69.18,1.26.66,1.54,1.31h-.04ZM16.59,4.56c-.02-.18-.06-.35-.12-.52h0c.03-.13.04-.26.05-.38,0,.1-.03.2-.06.28v.05-.05s-.03-.08-.04-.11c-.08-.24-.19-.46-.3-.68h0l.05-.12c.13-.34.3-.66.53-.94.23-.28.51-.53.83-.72l.23-.18h0c.08-.04.16-.08.24-.11.1-.03.2-.02.28.03.06.04.09.1.1.16v.26l-.22,1.55v.17c0,.14-.04.29-.06.43h0c-.28.08-.56.2-.81.35-.15.1-.28.21-.4.33l-.1.09.07-.12c.16-.25.29-.51.41-.78.02-.03.03-.06.04-.09l-.04.09c-.17.34-.36.67-.58.98v.04l-.1-.03v.02ZM17.66,2.28c-.09.45-.24.89-.43,1.32-.11.24-.23.46-.36.68.1-.09.21-.18.32-.26.26-.17.53-.28.82-.36h0c0-.14.04-.28.06-.43v-.16l.21-1.56v-.25c0-.06-.04-.11-.09-.14-.08-.04-.18-.04-.26,0-.08.03-.16.06-.23.11h0c-.09.04-.18.09-.26.14-.31.19-.59.43-.83.71-.23.28-.4.6-.53.94,0,.04,0,.08-.04.12.12.22.23.44.3.68v.06c.05-.2.07-.41.04-.61h.11c.06.26.06.52,0,.78.06.16.1.32.12.48.21-.29.39-.61.55-.94.21-.41.35-.85.46-1.3h.04Z"/>
        <path class="st2" d="M14.57,9.23c-.05-.09-.09-.19-.1-.28,0-.1,0-.2-.03-.29s0-.19,0-.28,0,0,0,0v-.06c-.03-.14-.08-.28-.13-.41,0-.05-.03-.11-.05-.16-.07-.22-.12-.43-.14-.65-.03-.26,0-.52.06-.78l-.13-.07c-.19-.11-.36-.24-.53-.36l-.16-.12c-.22-.18-.46-.3-.73-.38-.14-.04-.28-.06-.42-.06-.13,0-.26.02-.37.06-.08.02-.16.04-.24.04h-.12s-.08,0-.11-.04c-.04-.05,0-.09,0-.12h0c.04-.06.08-.11.12-.16.09-.1.19-.2.28-.28.68-.59,1.58-.84,2.46-.67-.07-.14-.14-.28-.2-.41h0c-.12-.28-.27-.57-.44-.83l-.07-.09c-.08-.1-.14-.21-.19-.31-.07-.15-.07-.31,0-.45.04-.07.1-.13.17-.16s.15-.04.23-.04c.18,0,.34.03.51.06.35.05.71.17,1.02.34.28.17.53.39.72.68l.04.07c.11-.32.28-.63.47-.9.23-.31.51-.57.84-.78l.26-.15h0c.09-.06.18-.11.27-.15.16-.09.36-.07.5.05.09.14.11.3.06.46v.07l-.08.65-.06.42c-.04.28-.08.58-.12.86v.08c.25-.05.5-.07.76-.05.35.03.69.12,1.01.26s.65.29.95.47h.04c.11.06.26.13.27.28s-.17.28-.29.33l-1.05.5-.3.14-.73.38c-.16.07-.31.13-.48.17h-.09c.42.25.79.59,1.04,1,.27.41.42.89.45,1.39.02.25,0,.49-.04.74,0,.06-.02.13-.04.19,0,.03-.02.05-.04.06h-.06s-.06-.04-.07-.06l-.07-.1c-.04-.06-.07-.13-.1-.2-.05-.12-.12-.23-.19-.33-.17-.23-.39-.39-.65-.49-.17-.07-.34-.12-.52-.17l-.33-.1c-.15-.04-.29-.1-.42-.18-.13-.07-.26-.17-.35-.27-.04-.03-.07-.07-.1-.11l-.07.09c-.12.16-.26.31-.41.5-.29.31-.61.62-.94.9l-.26.21-.04.04c-.06.06-.13.1-.21.13h-.08c-.07,0-.14-.05-.17-.11l-.02-.02h0ZM16.76,7.38s.08.09.12.12c.11.1.23.19.35.27.13.07.27.13.4.18l.33.09c.18.05.36.1.53.17.27.1.5.28.68.5.08.11.14.23.19.35.03.07.07.13.1.19.02.03.04.06.06.09,0,.02.03.03.05.04h0c.02-.06.03-.12.04-.17.05-.24.06-.48.04-.73-.07-1-.65-1.91-1.54-2.38l-.08-.04h.26c.16-.04.31-.1.46-.17l.7-.32.3-.15,1.05-.49c.12-.06.28-.14.27-.28s-.13-.18-.24-.23h-.04c-.3-.18-.62-.32-.94-.46-.31-.14-.66-.23-1-.26-.26-.02-.52,0-.78.06h-.04v-.22c.04-.28.08-.58.12-.86l.11-.43.08-.61v-.07c0-.14.05-.3-.05-.4-.12-.1-.29-.12-.43-.04l-.24.12h0c-.1.05-.18.1-.26.15-.31.2-.59.45-.82.76-.22.28-.37.61-.49.94v.06l-.05-.09-.05-.07c-.17-.28-.4-.51-.68-.69-.3-.17-.64-.28-.99-.32-.17-.03-.33-.05-.51-.06-.07-.02-.14-.02-.21,0-.06.03-.11.08-.14.13-.06.13-.06.28,0,.41.05.11.12.21.19.29l.07.09c.18.27.32.55.45.85h0c.07.16.14.3.22.46v.05h-.06c-.34-.07-.7-.07-1.04,0-.52.09-1.01.31-1.41.66-.1.09-.19.19-.28.28l-.12.15h0v.06h.14l.25-.02c.13-.03.26-.05.38-.06.14,0,.28,0,.41.05.28.09.53.22.75.4l.16.12c.17.14.34.26.53.36l.11.06h.03c-.06.26-.09.51-.06.78.03.21.08.41.14.61,0,.05.03.11.05.16.05.14.1.28.13.43h0v.28c0,.09,0,.2.03.28,0,.1.04.19.09.27.04.07.12.1.2.08.07-.03.13-.07.18-.12l.04-.04.26-.21c.33-.28.64-.58.94-.89.16-.18.29-.33.41-.5l.09-.12h0l.07.12v-.02h-.01ZM14.71,9.23s-.08-.06-.1-.11c-.04-.09-.06-.19-.07-.28v-.29c0-.09-.02-.18-.04-.27h0s.03-.07.04-.1h0v.06-.07c0-.07-.04-.15-.06-.22l-.05-.13c-.04-.14-.09-.28-.13-.43h0c-.09-.37-.09-.77,0-1.14.09-.34.28-.65.56-.86.18-.15.39-.23.61-.24.24,0,.4.21.53.4l.07.11.04.06h0c.06.16.08.33.07.5v-.44l.07.15s.03.06.04.09l-.12-.27h.21c.29.04.55.24.66.51.07.16.09.33.06.5-.03.19-.11.36-.21.52-.11.17-.23.32-.35.48s-.27.3-.42.46c-.3.3-.61.58-.92.85l-.12.1s-.07.06-.11.07h-.26,0ZM16.24,5.78h-.11c.15.27.23.56.24.85,0,.33-.13.66-.36.9l-.04-.04c.22-.24.32-.54.3-.85,0-.18-.04-.35-.12-.52-.03.57-.28,1.12-.68,1.52-.15.18-.27.36-.36.57h-.05c.14-.28.29-.53.49-.77l.08-.1c.21-.27.34-.58.4-.91.04-.21.02-.41-.04-.61-.45.22-.82.59-1.01,1.05h-.06c.18-.45.5-.85.91-1.1h-.08c-.25-.1-.53-.03-.71.16-.28.23-.49.55-.57.9h-.06c.1-.59.52-1.06,1.09-1.23.12,0,.24.03.33.08h.06v-.04c-.13-.19-.28-.37-.48-.38-.22,0-.42.09-.58.23-.27.21-.46.5-.55.83-.09.36-.09.75,0,1.11.03.15.08.28.13.43.02.04.03.09.04.13,0,.06.04.11.05.16h0c.13-.2.28-.37.45-.53l.04.04c-.19.21-.34.43-.47.68.02.09.03.18.04.27v.28c0,.09.02.19.06.27,0,.04.04.07.07.08s.06,0,.09,0l.09-.07.12-.11c.3-.26.61-.53.92-.84.16-.16.29-.3.42-.45s.25-.3.34-.47c.1-.15.17-.32.21-.5.09-.44-.2-.86-.64-.95h-.03l.03-.09v.03h0ZM15.97,5.7s-.1-.03-.14-.06h-.08.04l.11.04h.06-.06s-.1.05-.15.09c.07-.04.15-.08.24-.11h0v.03h-.02,0ZM19.58,9.37l-.05-.06-.11-.21v-.11c-.03-.06-.06-.12-.09-.17-.24-.36-.61-.61-1.04-.69l-.3-.09c-.18-.05-.35-.1-.53-.17-.14-.06-.27-.13-.38-.22h0c-.12-.09-.22-.19-.31-.29h0c.07-.11.13-.22.17-.33h0l.07.04-.07-.06h0c.02-.06.04-.13.05-.2v-.04h.03c.08.02.15.04.22.07-.07-.04-.15-.06-.23-.09h0v-.31h.04l.45.17c-.17-.07-.33-.14-.49-.19h0c-.02-.07-.06-.14-.1-.21l-.04-.06h.3-.08l-.22-.04h0c-.05-.08-.1-.15-.17-.21l-.09-.08.21.06c.18.04.34.09.51.11s.33.03.5.03h.23l.19.11c.45.27.84.65,1.09,1.11.23.42.35.88.36,1.37,0,.25-.04.49-.11.73h0v.04-.02h-.01ZM17.85,6.11c-.17,0-.34,0-.51-.03s-.33-.06-.5-.11v.04l.22.04c.39.05.77.19,1.09.41.14.09.25.22.32.35h-.05c-.08-.13-.19-.24-.31-.31-.32-.2-.69-.32-1.06-.35h-.1s.05.1.07.15c.98.28,1.8.94,2.27,1.84h-.06c-.46-.85-1.25-1.47-2.18-1.73h0v.21c.49.16.9.48,1.17.92l-.05.03c-.27-.4-.67-.7-1.14-.83,0,.06-.02.11-.04.16.17.12.33.23.53.34v.05c-.19-.09-.36-.18-.55-.28-.04.11-.09.21-.16.3.09.1.19.19.28.27h0c.12.08.25.15.37.21.17.07.34.12.52.17l.31.09c.28.08.52.22.74.4.1.09.19.2.26.3.04.06.07.12.09.18v.11c.03.07.07.13.11.19h0c.05-.22.07-.43.07-.65,0-.47-.13-.93-.35-1.35-.25-.45-.62-.83-1.07-1.09l-.17-.1-.13.07h0ZM14.22,6.23c-.1-.05-.2-.11-.29-.17-.12-.08-.23-.17-.33-.26l-.32-.24c-.22-.16-.46-.27-.72-.31-.13-.02-.27-.02-.39,0l-.19.03h-.12l-.24.04h-.12l.05-.07h0c.16-.21.34-.39.56-.55.41-.3.91-.5,1.42-.55.3-.03.6,0,.89.06h0c.06.12.12.21.17.28.08.11.16.21.24.3-.21-.26-.38-.53-.52-.83l-.15-.3c-.14-.32-.31-.64-.51-.93l-.04-.06c-.08-.1-.15-.21-.19-.32v-.09c-.02-.13.03-.27.13-.34.1-.06.21-.08.31-.06.18,0,.35.03.52.06.37.06.74.19,1.05.4h0c.32.25.58.56.76.92l-.08-.16h0l.05-.13c.13-.34.3-.67.53-.95.24-.28.51-.53.83-.72l.23-.14h0c.08-.04.16-.08.24-.11.1-.04.2-.04.29,0,.06.05.09.12.08.19v.22l-.22,1.59v.16c0,.14-.04.29-.06.44h-.04c-.28.08-.56.2-.81.35-.15.1-.28.21-.4.33l-.17.17.11-.17-.12.19-.04.07v-.08c-.02-.18-.06-.35-.12-.52h0v-.09.09-.09h0c.08.23.14.46.16.71v.28-.24h0v-.04l.05-.06c.4-.46.95-.78,1.55-.89.29-.05.6-.05.9,0,.33.06.66.17.96.31.15.06.29.14.47.23l.22.12.06.03s.11.05.16.09c.06.03.1.09.12.15,0,.11-.09.18-.12.21l-.17.09h-.06l-1.77.85c-.14.06-.29.14-.45.19h0c-.16.06-.32.1-.49.11h-.5c-.17,0-.33-.03-.49-.07l-.3-.08-.21-.05h0c-.11-.06-.23-.1-.35-.11h-.09l.07-.05h0l.14-.07h-.08l.07-.08s.03-.04.05-.07h.05l-.11.05.17-.14.14-.11-.11.09-.08.07v-.05s-.07.09-.11.12l-.08.06.04-.09h0s-.05.1-.07.14l-.05.08v-.09c0-.17-.04-.33-.08-.49.03.14.05.27.06.4v.17l-.06-.16c-.06-.16-.14-.3-.24-.45.1.16.19.33.24.51.02.04.02.09,0,.14,0,0,0,.04-.05.04h0c-.08-.14-.17-.27-.28-.38s-.27-.17-.41-.16h-.12s-.05-.02-.07-.04c-.05-.04-.1-.08-.14-.12.05.05.11.1.17.14l-.04.05h0l-.08.03h-.04l-.1.06h0c-.06.03-.12.07-.17.12h0l-.07.07h0c-.18.18-.29.4-.36.65h0l-.05.05-.08.03h.01ZM14.57,5.45c-.13-.04-.26-.07-.38-.09h-.38v-.06h.4c.14,0,.27.03.4.07l.12.04s.11-.08.16-.11h0l.05-.03c-.24-.13-.48-.24-.75-.31-.25-.08-.49-.14-.75-.16s-.51,0-.76.06v-.06c.25-.07.5-.09.76-.08.27,0,.52.05.78.12.29.09.57.2.84.34h.04c-.21-.18-.39-.38-.55-.61-.06-.09-.12-.19-.17-.28-.28-.06-.58-.08-.86-.05-.78.07-1.48.45-1.96,1.06h0l.24-.04h.31c.14-.02.28-.02.4,0,.27.05.52.16.75.31.11.07.22.16.32.24l.33.25.26.15c.08-.23.21-.43.36-.61h0l.04-.04s0-.11,0-.11ZM18.09,5.98c.16,0,.32-.05.47-.11h0c.15-.06.29-.12.44-.19l1.74-.83h.06l.17-.09c.07-.05.11-.09.1-.14s-.06-.09-.09-.11c-.05-.03-.1-.06-.15-.09h-.06l-.22-.12-.46-.24c-.3-.15-.63-.25-.95-.3-.29-.05-.59-.05-.87,0-.59.1-1.13.41-1.52.86l-.05.06h0v.1c0,.15-.03.29-.07.43h0c.4-.32.86-.57,1.37-.73.67-.17,1.38-.17,2.04,0v.06c-.29-.07-.6-.1-.9-.09-.75-.03-1.48.19-2.09.61l-.28.2c.47-.18.97-.24,1.47-.17.26.04.5.12.73.24v.05c-.23-.11-.46-.18-.71-.21-.49-.05-.99.02-1.44.22-.09.03-.18.07-.26.12.33-.07.68-.07,1.01,0h0c.16.02.32,0,.46-.06v.06c-.16.07-.32.1-.5.08h-.05c-.37-.07-.76-.04-1.12.1.1,0,.19.04.28.09l.2.05.3.08c.16.04.32.06.48.07h.48,0ZM16.09,5.31c-.07-.59-.38-1.12-.86-1.47l.03-.04c.56.37.91.98.97,1.66.11-.26.14-.53.07-.8-.08-.3-.2-.59-.35-.85h.05c.16.26.28.52.36.81.07.26.07.52,0,.78.13-.23.19-.49.15-.76-.03-.27-.09-.53-.19-.78-.17-.57-.5-1.07-.96-1.43h0c-.3-.21-.66-.33-1.02-.39-.17-.03-.34-.05-.51-.06-.1-.02-.2,0-.28.05-.08.08-.11.19-.09.29v.07c.04.11.11.22.18.3l.04.06c.2.29.37.62.51.94l.16.3c.19.43.46.81.83,1.11h.14c.17-.02.34.04.46.17.11.11.21.24.28.36v-.09c-.23-.69-.78-1.23-1.46-1.43v-.06c.68.17,1.24.63,1.53,1.25h-.04ZM17.67,2.28c-.1.45-.25.89-.43,1.32-.1.22-.21.41-.31.61.09-.07.18-.14.27-.21.26-.17.53-.28.83-.36h0c0-.14.04-.28.06-.41v-.17l.17-1.23.04-.35v-.21s-.03-.1-.08-.13c-.08-.04-.17-.04-.26,0-.08.03-.15.06-.22.1h0l-.26.14c-.31.19-.59.42-.82.71-.23.29-.4.6-.53.94l-.04.11c.12.22.22.44.3.68h0c.03-.19.03-.37,0-.56h.06c.06.26.06.52,0,.78.05.15.09.3.11.45.21-.29.38-.6.54-.91.2-.41.35-.85.45-1.29h.12,0Z"/>
        <path class="st2" d="M14.56,9.23c-.05-.09-.08-.19-.09-.29-.02-.1-.03-.2-.03-.29s0-.18-.03-.27v-.09c-.03-.14-.07-.28-.12-.41h0s-.04-.1-.05-.15c-.09-.22-.15-.43-.18-.66-.02-.26,0-.51.05-.76l-.05-.05c-.19-.11-.36-.24-.53-.36h0l-.15-.12c-.22-.18-.46-.3-.73-.38-.14-.04-.28-.07-.43-.07-.13,0-.25.03-.36.06l-.24.04h-.12s-.09-.02-.12-.05c-.04-.04-.04-.11,0-.15h0l.12-.16c.09-.11.19-.2.28-.28.41-.35.91-.59,1.44-.68.32-.06.65-.06.97,0-.06-.12-.12-.26-.18-.37h0c-.12-.29-.28-.57-.45-.83l-.06-.09h0c-.08-.1-.14-.21-.19-.31-.07-.15-.07-.31,0-.46.04-.08.1-.14.18-.17.08-.02.16-.02.24,0,.18,0,.35.03.52.06.36.04.71.15,1.02.32.28.17.53.41.71.7v.04c.13-.32.29-.63.51-.9.23-.3.51-.57.84-.78l.26-.16h0l.25-.12c.17-.1.37-.07.51.06.1.14.12.3.07.46v.07l-.08.63c0,.14-.04.28-.06.42h0c-.04.28-.08.56-.12.85v.06c.25-.05.49-.06.74-.04.35.03.7.12,1.02.27.33.14.66.3.95.46h.04c.12.06.26.14.28.28s-.18.29-.3.35l-1.05.49-.3.15-.72.4c-.16.07-.31.13-.48.17h-.05c.41.25.77.58,1.02.98.26.42.41.9.45,1.4.02.25,0,.5-.05.75,0,.06-.03.12-.04.18,0,.03-.02.06-.05.07h-.07s-.06-.04-.08-.07l-.07-.1c-.04-.06-.07-.13-.11-.2-.05-.12-.11-.23-.19-.32-.17-.23-.38-.39-.65-.48-.17-.07-.34-.13-.52-.17h0l-.33-.1c-.15-.04-.28-.11-.42-.18-.13-.08-.26-.17-.36-.28l-.09-.09-.05.07c-.12.17-.26.32-.41.5-.29.33-.62.65-.95.94l-.25.21-.04.04c-.06.06-.13.11-.21.14h-.09c-.08-.02-.15-.07-.19-.15v-.04h.02ZM16.75,7.45l.09.11c.11.11.24.2.36.27.13.07.27.14.41.18.11.04.22.07.33.09h0c.18.04.35.1.52.17.27.1.49.27.66.49.08.11.14.22.19.33,0,.07.07.14.1.2l.07.09s.04.05.07.06h.05s.03-.03.03-.05c.02-.06.03-.12.04-.18.05-.24.06-.48.05-.73-.04-.49-.2-.96-.45-1.39-.27-.41-.62-.76-1.04-1h-.04.14c.17-.05.32-.1.48-.17l.7-.32.3-.15,1.05-.49c.12-.06.3-.15.28-.31s-.16-.21-.26-.26h-.04c-.3-.18-.63-.33-.95-.46-.32-.14-.67-.23-1.01-.27-.25-.02-.5,0-.75.05h0v-.07c.04-.28.08-.57.12-.85h0c0-.14.04-.28.06-.42l.09-.61v-.07c.11-.19.09-.41-.05-.58-.14-.12-.33-.14-.48-.05l-.24.12h0c-.1.05-.18.1-.26.15-.33.2-.63.46-.85.78-.21.28-.36.58-.48.9h0l-.04-.06c-.18-.28-.42-.52-.71-.69-.3-.18-.65-.28-1-.33-.17-.03-.34-.05-.51-.06h-.22c-.07.03-.13.08-.17.15-.07.14-.07.3,0,.44.05.11.12.22.19.3h0s.05.06.07.09c.17.27.32.54.45.83h0c.06.13.12.27.19.4v.03h0c-.32-.06-.67-.06-.99,0-.53.1-1.02.32-1.43.68-.1.09-.2.18-.28.28l-.12.16h0s-.05.07,0,.11.07.03.09.04h.06c.08,0,.16-.02.23-.04h.38c.14,0,.27,0,.4.04.27.09.52.22.74.39l.15.11h0c.17.14.34.26.53.36l.1.05h0c-.06.26-.08.51-.06.77.03.21.07.41.14.61.02.05.04.1.05.15h0c.05.14.09.28.12.42h0v.04h0c.02.1.03.19.03.28v.28c0,.1.04.2.09.28s.15.13.24.1c.07-.03.14-.07.19-.12l.04-.04.25-.21c.33-.28.65-.58.94-.9.15-.16.28-.32.41-.5l.07-.09h0l.11.08h-.02ZM14.61,9.2c-.05-.08-.08-.18-.09-.27-.02-.1-.03-.2-.03-.28,0-.1,0-.2-.03-.29h0v-.04h0c-.03-.15-.08-.28-.12-.43h0s-.03-.09-.05-.14c-.07-.21-.11-.42-.14-.65-.03-.27,0-.52.06-.78h0s-.08-.04-.11-.06c-.19-.11-.36-.23-.53-.36l-.16-.12c-.23-.22-.49-.37-.78-.47-.14-.02-.28-.02-.42,0-.13,0-.26.03-.38.06-.07.02-.15.03-.22.04h-.19v-.06h0s.08-.11.12-.16c.09-.1.18-.2.28-.28.4-.34.89-.58,1.41-.67.34-.06.71-.06,1.05,0h0c-.08-.15-.16-.3-.22-.46h0c-.11-.32-.25-.64-.41-.93-.03-.03-.05-.06-.07-.1-.08-.09-.14-.19-.19-.29-.07-.14-.07-.29,0-.42.03-.06.09-.11.15-.14h.22c.17,0,.34.03.51.06.35.03.7.13,1.01.28.28.17.52.4.7.68l.04.08.04.06h0c.12-.34.28-.66.5-.94.23-.3.5-.56.83-.77l.26-.15h0c.08-.05.16-.09.24-.12.15-.08.32-.06.45.04.08.13.1.28.05.42h0v.07l-.09.63c0,.11,0,.22-.04.31v.11c-.04.28-.07.58-.12.86v.12h0c.26-.06.52-.07.78-.05.34.03.69.12,1,.26.32.14.64.29.94.47h.04c.11.06.23.12.25.25s-.16.24-.28.28l-1.05.5-.29.14h0c-.23.11-.46.22-.7.31-.15.07-.31.13-.47.17l-.17.03h-.04.04c.89.48,1.48,1.39,1.55,2.4,0,.25,0,.48-.05.73l-.04.18v.04h0s-.04-.03-.06-.05c-.02-.03-.04-.07-.06-.1-.04-.06-.07-.12-.1-.19-.05-.12-.12-.24-.19-.34-.18-.23-.4-.4-.67-.5-.17-.07-.34-.13-.53-.17h0l-.32-.1c-.14-.05-.28-.1-.41-.17-.13-.08-.25-.17-.35-.27l-.12-.13h0l-.09.12c-.13.17-.27.33-.41.49-.33.35-.69.68-1.07.97l-.25.21-.03.03h0c-.06.05-.12.1-.19.12h-.07c-.06,0-.11-.04-.14-.09v.02h.02ZM16.25,5.77h-.17c.05.1.09.19.12.27h0l-.04-.09v-.06.35h0c0-.17,0-.33-.07-.49h0c-.08.03-.16.06-.24.11v-.03l.15-.08h0l-.11-.04h-.04v-.03l.08.03.14.05h0l-.2-.16c-.1-.2-.28-.34-.48-.4h-.03c-.23,0-.44.09-.61.23-.28.22-.47.52-.56.85-.09.36-.09.75,0,1.11h0v.04h0c.04.14.08.28.13.41h0l.04.11c0,.07.04.15.06.22v.03l.03-.06h.03s-.04.06-.05.09h0c.02.09.03.18.03.27v.29c0,.1.03.2.07.28.02.04.05.08.09.1s.09.02.12,0c.04-.02.07-.05.11-.07l.12-.1c.29-.26.61-.53.92-.85.16-.15.29-.3.42-.46.13-.15.25-.3.35-.47.1-.16.17-.33.21-.51.03-.17,0-.34-.06-.5-.12-.28-.36-.46-.65-.51l.07.04.02.03ZM18.04,6.07h-.22c-.34,0-.69-.05-1.02-.15h-.14l.04.04s.08.07.11.11h0l.23.05h.08-.08l-.16-.03h0c.04.07.08.14.11.21h0c.17.06.33.12.49.19h0c-.15-.06-.3-.12-.45-.17h0v.28h0l.23.09h0l-.22-.07h0c0,.07-.03.14-.05.21h0l.07.06h0l-.07-.04h0c-.05.12-.11.23-.17.33h0c.1.11.2.21.31.29.12.09.25.16.37.21.18.07.35.13.53.17h0l.3.09c.27.08.52.21.73.39.09.09.17.19.24.3.04.06.07.11.1.17v.11c.03.07.07.14.11.2,0,.02.03.04.04.06h0c.06-.23.09-.47.09-.71,0-.47-.14-.94-.36-1.36-.26-.46-.63-.85-1.08-1.1-.06-.03-.11-.07-.18-.1h0v.17s.02,0,.02,0ZM14.69,5.45h0s.11-.09.17-.12h0l.09-.05h.1l.03-.04-.16-.14h0s.09.08.14.12c.02.02.04.03.06.04h.11c.16-.02.31.04.43.16.11.12.21.25.28.38h0s.03-.02.04-.03v-.12c-.06-.18-.14-.34-.24-.5h0c.1.14.18.28.24.45v.07-.07c0-.14-.02-.28-.05-.4h0c.04.17.07.33.07.5v.04-.03s.05-.09.07-.14h0v.04h.03s.08-.07.11-.12h0l.28-.16.11-.09h0l-.14.11-.07.06h-.04v.04l.07-.04c.08-.05.17-.09.26-.12.45-.19.94-.27,1.43-.22h0c.25.03.48.1.7.21h0c-.23-.11-.46-.19-.71-.22-.49-.07-.99,0-1.46.17l-.1.04.09-.07c.09-.07.18-.14.27-.2.62-.43,1.36-.65,2.1-.61.29,0,.6.03.89.09h0c-.66-.16-1.36-.16-2.01,0-.5.15-.96.4-1.37.73l-.02.12v-.05h0c.05-.14.08-.28.07-.43v-.14h0l.05-.06c.39-.46.93-.77,1.53-.87.29-.05.6-.05.89,0,.33.06.66.17.95.31.14.06.28.14.46.23l.22.12h.06s.1.05.15.08.09.07.11.12c0,.06,0,.11-.11.16-.06.03-.11.06-.17.09h0l-.06.03-1.71.8c-.14.06-.28.14-.44.19-.16.06-.31.09-.48.11h-.49c-.17,0-.33-.03-.49-.07l-.29-.07h0l-.2-.05h0c-.09-.05-.18-.08-.28-.09h-.05.05c.35-.14.75-.17,1.12-.1h.05c.17,0,.32,0,.48-.07h0c-.15.06-.3.08-.46.06h0c-.33-.07-.68-.07-1,0l-.09.03h0v.03h0l-.14.06h0c.13,0,.25.04.35.1h0l.17.05h0l.3.07c.17.04.33.06.5.07h.5c.17,0,.32-.05.48-.11s.3-.12.45-.2l1.74-.83h.06c.06-.03.12-.06.17-.09.03,0,.13-.08.12-.18-.02-.06-.06-.11-.12-.14l-.17-.11-.06-.03-.22-.12c-.16-.09-.31-.17-.47-.24-.3-.15-.63-.26-.96-.31-.29-.05-.6-.05-.89,0-.6.11-1.15.41-1.54.88l-.05.06h0v.24h-.03v-.25h0v-.04c-.03-.24-.08-.47-.17-.7h0v.05-.03h.1v.09h0c.06.18.1.34.12.53v.03h0l.12-.19h0l-.04.06.07-.07c.13-.13.26-.24.4-.33.25-.17.53-.28.82-.35h0c0-.14.05-.29.07-.44v-.16l.27-1.56v-.22c0-.07-.05-.12-.1-.16-.09-.04-.2-.04-.28,0-.08.03-.16.06-.23.1h0l-.26.14c-.31.19-.6.43-.83.72s-.41.6-.53.94c0,.04,0,.09-.04.13h0s.06.1.08.16h0c-.17-.36-.42-.68-.75-.92-.31-.21-.67-.34-1.04-.39-.18-.03-.34-.05-.52-.06-.11-.02-.22,0-.31.06-.1.08-.14.21-.12.33v.08c.04.12.11.23.19.31l.04.06c.2.29.37.61.51.94.05.11.1.21.15.3.14.29.31.58.51.83h0c-.09-.1-.17-.21-.24-.31-.05-.08-.11-.17-.17-.28h0c-.29-.06-.59-.08-.89-.06-.51.05-1,.25-1.41.55-.21.16-.39.33-.55.54l-.08.04h.12l.24-.04h.12c.07-.02.13-.03.2-.04.13-.02.27-.02.39,0,.27.05.51.16.73.31l.31.24h0l.34.26.28.16h0c.07-.25.2-.46.36-.65h0l.07-.07h.04s.05-.05.05-.05ZM18.06,5.97c.16-.02.31-.05.46-.11.16-.06.3-.13.44-.19l1.74-.83h.06c.06-.02.11-.05.17-.08.07-.05.1-.09.09-.13s-.05-.07-.09-.1l-.12-.12-.06-.03-.22-.12c-.18-.09-.32-.17-.46-.23-.3-.15-.62-.25-.95-.3-.29-.05-.59-.05-.87,0-.59.11-1.12.41-1.51.86l-.05.06h0v.09c0,.14-.02.28-.06.41.39-.31.85-.55,1.33-.7.68-.17,1.38-.17,2.05,0h0v.09h0c-.29-.07-.6-.11-.9-.1-.75-.03-1.47.19-2.08.61l-.19.14c.44-.16.91-.2,1.39-.14.26.04.5.12.73.24h0l-.04.08h0c-.23-.11-.46-.18-.71-.21-.49-.06-.99.02-1.44.21l-.14.06c.29-.05.6-.05.89,0h0c.16.02.31,0,.46-.06h0l.04.08h0c-.16.08-.33.11-.5.09h-.05c-.35-.07-.72-.04-1.06.07.08.02.16.05.23.09l.2.05h0l.28.07c.16.04.32.06.48.07h.45l.04.06h-.02v.02ZM16.16,5.69v-.07.09s-.03.04-.06.05h0l.06-.06h0ZM16.16,5.72h0ZM16.3,5.55h-.06l-.04.07h.04l.06-.07ZM15.13,5.2h.04-.04ZM14.71,9.23s-.06-.06-.07-.09c-.04-.09-.06-.18-.07-.28v-.55h0c.12-.25.28-.47.46-.68h0c-.17.16-.31.32-.43.51v.03h0v-.04c0-.06-.03-.11-.05-.16-.02-.04-.03-.09-.04-.14-.05-.14-.1-.28-.14-.42-.09-.36-.09-.75,0-1.12.08-.33.28-.63.55-.85.18-.15.39-.23.61-.23s.36.19.5.38h0v.04h-.11c-.1-.05-.22-.08-.32-.07-.56.16-.97.62-1.07,1.19h0c.09-.35.28-.67.57-.9.19-.2.48-.26.73-.16h.11-.03c-.4.26-.72.63-.89,1.07h0c.21-.46.57-.83,1.02-1.04h0c.06.2.07.41.04.61-.06.33-.2.66-.4.92l-.08.1c-.19.23-.35.48-.48.75h0c.1-.21.22-.39.36-.56.4-.4.65-.94.68-1.51v-.09l.04.08c.07.17.11.34.12.53,0,.31-.1.62-.3.85h0c.23-.24.35-.55.34-.87,0-.29-.09-.59-.24-.85h.14c.28.05.51.24.61.5.06.15.08.31.06.48-.03.18-.1.35-.21.51-.11.17-.23.32-.35.46-.13.16-.27.3-.42.46-.3.3-.61.58-.92.84l-.12.11s-.06.05-.09.07h-.07l-.02.1h0l-.02.02ZM16.23,5.83h-.09c.15.26.22.55.22.85,0,.34-.12.68-.36.91h0l-.06-.06h0c.22-.23.32-.53.3-.85,0-.15-.04-.3-.09-.44-.06.55-.3,1.06-.69,1.45-.15.18-.27.36-.36.56h0l-.08-.04h0c.14-.28.3-.53.5-.78l.07-.09c.21-.27.34-.58.4-.9.03-.21.02-.41-.04-.61-.44.22-.8.59-.99,1.04h0l-.08-.04h0c.18-.45.48-.83.89-1.09h-.04c-.24-.1-.52-.04-.7.16-.28.23-.48.55-.56.9h-.09c.1-.59.52-1.07,1.1-1.23.12,0,.24.02.34.07h0c-.15-.22-.28-.35-.46-.36-.21,0-.41.09-.58.22-.27.21-.45.5-.53.83-.09.36-.09.74,0,1.1.04.15.08.28.14.43,0,.04.03.09.04.13l.04.13h0c.13-.2.28-.37.45-.53h0l.06.06h0c-.19.21-.34.43-.46.68,0,.09.03.17.03.26v.29c0,.09.03.18.07.27,0,.03.03.06.06.07h.07s.07-.04.09-.06l.12-.11c.29-.26.61-.53.91-.83.16-.16.29-.3.42-.46.13-.15.24-.3.34-.46.1-.15.17-.32.21-.5.03-.16,0-.31-.06-.46-.11-.26-.34-.43-.61-.47l.04-.04h.02ZM19.54,9.3h0c-.04-.06-.07-.12-.11-.2v-.11c-.03-.06-.06-.12-.09-.17-.07-.12-.16-.22-.26-.3-.21-.19-.46-.32-.73-.4l-.3-.09h0c-.18-.04-.35-.1-.52-.17-.14-.05-.26-.12-.37-.21s-.21-.18-.29-.28h0c.06-.09.12-.19.16-.29h0c.17.1.34.19.53.28h0c-.19-.12-.35-.22-.52-.33h0c0-.06,0-.11.04-.16h0c.46.13.86.42,1.14.82h0c-.27-.43-.68-.75-1.15-.9h0v-.24h0c.93.26,1.72.87,2.18,1.72h0c-.46-.89-1.28-1.56-2.25-1.84h0s-.04-.1-.07-.15v-.03h.14c.38.03.75.16,1.07.35.13.08.24.19.31.3h0c-.08-.13-.19-.25-.31-.33-.32-.22-.7-.35-1.09-.4l-.22-.05h0l-.03-.04v-.17h.06c.17.05.33.08.5.11.18,0,.36,0,.51.04h.22l.17.09c.45.27.83.65,1.07,1.1.23.41.35.87.36,1.35,0,.23-.02.46-.07.68v.04l-.05-.02s-.03,0-.03,0ZM17.82,6.14h-.43c.28.06.56.18.8.34.14.09.25.22.33.35h0l-.08.04h0c-.08-.13-.19-.24-.31-.31-.32-.2-.69-.31-1.06-.35h-.06s.04.08.05.12c.97.28,1.8.94,2.27,1.84h0l-.08.04h0c-.45-.84-1.23-1.45-2.14-1.71v.17c.49.16.9.48,1.17.92h0l-.07.04h0c-.27-.39-.66-.68-1.11-.81v.13c.16.12.33.22.51.33h0l-.04.08h0c-.19-.09-.35-.18-.53-.28-.04.1-.09.19-.15.27.08.1.18.19.28.26.11.09.24.16.36.21.17.07.34.13.52.17h0l.3.09c.28.08.53.22.75.4.1.1.18.2.26.31.04.06.07.12.1.18.02.04.04.07.05.11.03.06.06.12.09.17.05-.2.07-.4.06-.61-.02-.99-.55-1.92-1.41-2.42l-.17-.09h-.26v.02h0ZM14.17,6.18c-.09-.04-.18-.09-.26-.15-.12-.07-.23-.16-.33-.25h0c-.11-.08-.22-.17-.32-.24-.22-.16-.47-.27-.74-.31-.14-.02-.28-.02-.4,0l-.2.04h-.12l-.19.04h-.05c.16-.2.33-.37.53-.52.66-.48,1.48-.66,2.28-.49h0c.05.1.11.19.17.28.15.23.33.43.54.61h-.04c-.27-.14-.55-.26-.84-.33-.25-.07-.51-.12-.77-.12s-.51,0-.76.07h0c.25-.06.5-.08.76-.06s.51.07.76.14c.26.08.51.19.75.31h0l-.05.03h0l-.16.11h0l-.11-.04c-.13-.04-.27-.06-.4-.07h-.38.36c.13.02.27.04.38.09h.06s-.03.03-.04.04h0c-.17.18-.28.38-.36.61h0l-.06.21h-.02,0ZM14.52,5.48c-.13-.04-.26-.07-.38-.09h-.38v-.09h.41c.14,0,.28.03.4.07l.11.04s.1-.09.16-.12h.03c-.23-.12-.47-.22-.72-.3-.24-.09-.47-.15-.72-.18-.26-.02-.51,0-.76.06h0v-.09h0c.25-.06.5-.1.76-.09.27,0,.52.06.78.13.28.08.57.2.83.33h0c-.21-.18-.38-.38-.53-.61-.06-.09-.12-.18-.17-.27-.28-.06-.57-.08-.85-.05-.5.05-.98.24-1.4.53-.2.16-.36.34-.51.55h.31l.21-.04c.14-.02.28-.02.41,0,.27.06.52.17.75.32.11.08.22.16.32.24h0c.11.08.22.17.33.25.08.05.16.1.24.14.08-.23.2-.44.36-.61h0l-.02-.12s.03,0,.03,0ZM16.03,5.67c-.07-.14-.17-.27-.28-.36-.12-.13-.28-.19-.45-.16h-.09l-.06-.03c-.35-.3-.64-.69-.83-1.12l-.14-.29h0c-.14-.32-.31-.64-.51-.94l-.04-.06c-.08-.09-.14-.2-.19-.31v-.07c-.02-.12.02-.24.11-.31.09-.05.2-.07.29-.05.18,0,.34.03.51.06.37.05.72.19,1.03.39.47.36.81.87.97,1.44.08.25.13.51.14.77.03.26-.02.51-.14.74l-.05.07v-.08c.06-.26.06-.51,0-.77-.08-.28-.2-.55-.35-.8h0c.15.27.27.55.33.85.07.28.04.56-.07.82v.05-.06c-.06-.66-.4-1.26-.94-1.63h0c.48.34.8.88.85,1.47v.09l-.07-.07c-.28-.6-.82-1.05-1.46-1.23h0c.7.22,1.24.76,1.46,1.44v.1h0l-.04.05h.02ZM14.6,4.08c.63.17,1.15.59,1.45,1.17-.09-.55-.39-1.04-.85-1.37h0l.05-.07h0c.55.37.9.96.97,1.61.09-.24.11-.49.05-.74-.08-.29-.19-.59-.34-.85h0l.07-.04h0c.16.26.28.53.36.81.06.23.07.46.04.69.08-.2.11-.4.08-.61-.03-.27-.09-.52-.19-.78-.16-.58-.49-1.1-.95-1.48-.3-.21-.66-.33-1.02-.38-.17-.03-.33-.05-.51-.06-.1-.02-.19,0-.28.04-.08.07-.12.18-.11.28v.07c.05.11.11.22.18.3l.04.06c.2.29.37.62.51.94h0c.04.1.09.2.14.29.19.42.46.8.82,1.1h.12c.18,0,.35.05.48.17.1.1.19.21.26.33v-.04c-.23-.68-.77-1.21-1.44-1.42h0v-.09l.06.06h.02-.01ZM16.61,4.5c-.02-.16-.06-.3-.11-.45h0c.05-.26.05-.51,0-.76h0c.02.19,0,.37-.03.56v.05-.07c-.09-.23-.19-.45-.3-.67h0s.03-.08.04-.11c.13-.34.3-.66.53-.94.23-.28.51-.52.83-.71.07-.05.16-.09.25-.14h0c.07-.04.15-.07.23-.1.09-.04.19-.04.27,0,.05.03.08.08.09.14v.21l-.22,1.59v.16c0,.14-.04.28-.06.42h0c-.28.08-.56.2-.82.35l-.27.21-.07.06.06-.08c.14-.24.24-.42.31-.61.19-.42.32-.85.42-1.3h0c-.11.44-.26.86-.45,1.28-.16.31-.33.62-.53.91v.04l-.15-.03-.02-.02h0ZM17.69,2.3h0c-.09.45-.24.9-.43,1.33-.07.16-.16.33-.27.53l.2-.14c.26-.17.53-.28.83-.36,0-.14.04-.28.06-.41v-.16l.22-1.59v-.2s-.04-.09-.07-.12c-.08-.03-.17-.03-.24,0-.08.02-.15.06-.22.1h0l-.26.14c-.31.19-.59.42-.81.71-.23.28-.4.59-.52.92-.02.04-.03.07-.04.11.12.21.22.42.29.65.03-.17.03-.34,0-.51h.08c.06.26.06.53,0,.79.04.14.08.28.11.41.2-.29.37-.6.52-.92.21-.42.36-.85.46-1.32h0l.09.06h0v-.02Z"/>
        <path class="st2" d="M19.31,11.71v-.04c-.08-.88-1.15-1.13-1.84-1.32l-.44-.13v.16s.43.12.47.13c.17.05.32.11.48.18.35.14,1.48.61.91,1.14-.46.32-1,.54-1.56.61-.57.14-1.15.24-1.73.32l-.28.04c-2.77.33-5.57.35-8.34.07-.77-.1-3.59-.41-3.77-1.37.11-.5.91-.85,2.07-1.09v-.25l-.41.11c-.61.23-1.73.45-1.84,1.27v1.5c0,1.4-.03,2.79-.04,4.19v2.54c.02.44.33.83.77.92,4.54,1.05,9.26,1.13,13.82.24l1.05-.24c.44-.1.76-.48.77-.92v-.85c0-1.41,0-2.82-.05-4.23,0-.55-.03-1.09-.05-1.63s.05-.87,0-1.35h.01ZM19.09,15.54c0,1.42-.04,2.84-.03,4.29,0,.29-.2.55-.49.61l-1.02.21c-3.47.78-7.05.89-10.56.33-.7-.11-1.4-.22-2.08-.36-.34-.07-.7-.16-1.03-.24-.29-.05-.51-.31-.51-.61-.03-2.62,0-5.3-.14-7.91.35.49,1.23.72,1.68.86,3.43.85,7,1.03,10.5.53,1.07-.12,2.11-.39,3.1-.84.28-.12.52-.3.71-.55-.06,1.24-.1,2.46-.11,3.67h-.02,0Z"/>
        <path class="st2" d="M11.25,21.65c-2.52,0-5.03-.28-7.48-.85-.47-.11-.81-.51-.83-.99v-8.22c.07-.75.93-1.02,1.56-1.23l.3-.11.34-.09.19-.05v.4h-.06c-1.23.26-1.91.61-2.01,1.02.2.85,2.75,1.18,3.6,1.29h.12c2.77.28,5.56.27,8.32-.07l.28-.04c.68-.1,1.23-.21,1.72-.32h.11c.52-.09,1-.29,1.42-.61.09-.07.14-.18.12-.28-.06-.33-.78-.61-1.02-.74s-.31-.12-.48-.17l-.12-.03c-.28-.07-.41-.12-.41-.17v-.25h.1l.44.1.12.04c.72.2,1.7.46,1.78,1.35v1.43c0,.55,0,1.09.04,1.63.04,1.37.05,2.79.05,4.23v.85c0,.48-.35.89-.83.99h0l-1.05.24c-2.08.42-4.21.65-6.34.66h.02,0ZM3.15,11.77v8.03c0,.4.27.75.65.85,4.53,1.04,9.24,1.13,13.81.25l1.05-.25c.4-.09.7-.44.72-.85v-.85c0-1.43,0-2.86-.05-4.23,0-.54,0-1.09-.04-1.63v-.95c-.04,1.08-.07,2.19-.1,3.38h0c0,1.67-.04,3.03,0,4.29,0,.32-.23.6-.54.67l-1.02.27c-3.48.79-7.06.9-10.58.33-.85-.13-1.49-.25-2.1-.37-.41-.09-.74-.17-1.03-.24-.31-.06-.55-.33-.56-.66v-1.78c0-2.02,0-4.1-.12-6.14l-.06-.14-.02.02h0ZM3.3,12.1c.09,1.97.11,3.98.12,5.92v1.78c0,.26.21.47.46.52.28.07.61.15,1.02.24.61.13,1.23.24,2.08.36,3.5.56,7.07.45,10.53-.33l1.02-.27c.25-.06.42-.28.43-.53v-4.29c0-1.23.06-2.33.11-3.43-.18.18-.38.31-.61.41-.99.44-2.04.72-3.12.84-3.51.51-7.08.33-10.52-.52-.08-.03-.16-.06-.24-.08-.46-.13-.9-.34-1.29-.63h.01ZM3.15,11.67l.13.19c.39.37.88.64,1.41.76l.23.08c3.41.85,6.96,1.03,10.43.52,1.06-.12,2.09-.39,3.07-.83.27-.12.5-.29.68-.53l.1-.15v-.04c-.07-.79-.99-1.04-1.67-1.23l-.12-.03-.28-.08h0l.3.08.13.03c.17.06.33.12.49.18.28.12,1.03.42,1.1.84.02.16-.05.32-.17.42-.43.32-.94.54-1.48.61l-.11.03c-.5.12-1.05.23-1.73.32l-.28.04c-2.78.34-5.58.36-8.36.07h-.12c-.96-.12-3.53-.45-3.68-1.41h0v.04s-.04.06-.06.09h0ZM5.24,10.31l-.31.09-.3.11c-.61.19-1.34.43-1.45,1.03.12-.48.8-.85,2.07-1.12v-.1h0Z"/>
      </g>
    </g>
    <g>
      <path class="st3" d="M28.48,13.72h69.41"/>
      <g>
        <path class="st2" d="M30.47,19.17h-.43l-1.38-3.36h.42l1.18,2.93,1.17-2.93h.42l-1.38,3.36Z"/>
        <path class="st2" d="M33.2,19.17v-3.36h.39v3.36h-.39Z"/>
        <path class="st2" d="M36.76,19.17h-.43l-1.38-3.36h.42l1.18,2.93,1.17-2.93h.42l-1.38,3.36Z"/>
        <path class="st2" d="M39.49,19.17v-3.36h2.06v.35h-1.66v1.13h1.57v.35h-1.57v1.18h1.68v.35h-2.08Z"/>
        <path class="st2" d="M45.63,19.17h-.44l-.8-1.36h-.9v1.36h-.39v-3.36h1.27c.24,0,.45.04.62.12.17.08.31.19.4.34s.14.33.14.53c0,.24-.06.44-.19.6-.13.16-.31.28-.54.34l.83,1.42ZM43.49,17.46h.85c.24,0,.43-.06.57-.17.14-.11.21-.27.21-.47s-.07-.36-.21-.47c-.14-.11-.33-.17-.58-.17h-.85v1.29Z"/>
        <path class="st2" d="M48.99,19.17v-3.36h.97c.41,0,.77.07,1.06.2.3.13.52.33.68.58.16.25.24.55.24.9s-.08.65-.24.9c-.16.25-.39.44-.68.58-.3.13-.65.2-1.06.2h-.97ZM49.38,18.82h.59c.33,0,.61-.05.84-.16.23-.1.41-.26.53-.45.12-.2.18-.44.18-.72s-.06-.52-.18-.72c-.12-.2-.3-.35-.53-.45-.23-.1-.51-.16-.84-.16h-.59v2.66Z"/>
        <path class="st2" d="M53.34,19.17v-3.36h2.06v.35h-1.66v1.13h1.57v.35h-1.57v1.18h1.68v.35h-2.08Z"/>
        <path class="st2" d="M61.77,18.74c-.15.16-.34.28-.55.37s-.45.13-.7.13-.48-.04-.7-.13-.4-.21-.55-.37c-.16-.16-.28-.34-.36-.56-.09-.21-.13-.44-.13-.69s.04-.48.13-.7c.09-.21.21-.4.36-.55s.34-.28.55-.36c.21-.09.45-.13.7-.13s.48.04.7.13.4.21.55.36l-.28.28c-.12-.13-.26-.24-.43-.31s-.35-.11-.55-.11-.37.03-.53.1-.3.17-.42.29c-.12.13-.21.27-.28.44-.07.17-.1.36-.1.56s.03.39.1.56c.07.17.16.32.28.44.12.13.26.22.42.29s.34.1.53.1.38-.04.55-.11.31-.18.43-.31l.28.28Z"/>
        <path class="st2" d="M64.8,19.24c-.25,0-.48-.04-.7-.13s-.4-.21-.55-.37c-.16-.16-.28-.34-.36-.56-.09-.21-.13-.44-.13-.69s.04-.48.13-.7c.09-.21.21-.4.36-.55s.34-.28.55-.36c.21-.09.45-.13.7-.13s.48.04.7.13c.21.09.4.21.55.36s.28.34.37.55.13.44.13.7-.04.48-.13.69c-.09.21-.21.4-.37.56-.16.16-.34.28-.55.37-.21.09-.44.13-.7.13ZM64.8,18.89c.19,0,.37-.04.53-.1.16-.07.31-.17.43-.29.12-.13.21-.27.28-.44.07-.17.1-.35.1-.55s-.03-.38-.1-.56c-.07-.17-.16-.32-.28-.44-.12-.13-.26-.22-.43-.29s-.34-.1-.53-.1-.37.03-.53.1-.31.17-.43.29c-.12.13-.22.27-.28.44-.07.17-.1.36-.1.56s.03.38.1.56c.07.17.16.32.28.44.12.13.26.22.43.29s.34.1.53.1Z"/>
        <path class="st2" d="M70.86,19.17h-.42l-2.11-2.74v2.74h-.39v-3.36h.42l2.11,2.74v-2.74h.39v3.36Z"/>
        <path class="st2" d="M72.42,19.17v-3.36h2.02v.35h-1.63v1.13h1.54v.35h-1.54v1.53h-.39Z"/>
        <path class="st2" d="M75.97,19.17v-3.36h2.06v.35h-1.66v1.13h1.57v.35h-1.57v1.18h1.68v.35h-2.08Z"/>
        <path class="st2" d="M79.59,19.17v-3.36h.39v3.36h-.39Z"/>
        <path class="st2" d="M82.74,19.17h-.39v-3.01h-1.08v-.35h2.55v.35h-1.08v3.01Z"/>
        <path class="st2" d="M85,19.17h-.41l1.38-3.36h.43l1.38,3.36h-.41l-.36-.91h-1.63l-.36.91ZM85.51,17.92h1.35l-.67-1.68-.67,1.68Z"/>
        <path class="st2" d="M91.62,19.17h-.44l-.8-1.36h-.9v1.36h-.39v-3.36h1.27c.24,0,.45.04.62.12s.31.19.4.34.14.33.14.53c0,.24-.06.44-.19.6-.13.16-.31.28-.54.34l.83,1.42ZM89.48,17.46h.85c.24,0,.43-.06.57-.17.14-.11.21-.27.21-.47s-.07-.36-.21-.47c-.14-.11-.33-.17-.57-.17h-.85v1.29Z"/>
        <path class="st2" d="M92.99,19.17v-3.36h.39v3.36h-.39Z"/>
        <path class="st2" d="M95.11,19.17h-.41l1.38-3.36h.43l1.38,3.36h-.41l-.36-.91h-1.63l-.36.91ZM95.61,17.92h1.35l-.67-1.68-.67,1.68Z"/>
      </g>
    </g>
  </g>
  <g>
    <path class="st2" d="M37.41,9.57h-.57l1.84-5.66h1.86l-2.2,6.33h-2.26l-2.13-5.5h.74l-2.12,5.5h-2.27l-2.2-6.33h1.87l1.84,5.66h-.56l2.13-5.66h1.87l2.13,5.66h.03Z"/>
    <path class="st2" d="M44.92,10.37c-.82,0-1.55-.14-2.17-.41s-1.1-.66-1.45-1.16c-.34-.49-.52-1.07-.52-1.73s.17-1.23.52-1.73c.34-.49.83-.88,1.45-1.16.62-.28,1.34-.41,2.17-.41s1.55.14,2.17.41c.62.28,1.1.66,1.45,1.16.35.5.52,1.07.52,1.73s-.17,1.23-.52,1.73c-.35.5-.83.88-1.45,1.16s-1.34.41-2.17.41ZM44.92,8.95c.49,0,.9-.07,1.25-.22s.62-.36.81-.65c.19-.28.29-.62.29-1s-.1-.72-.29-1c-.19-.28-.46-.5-.81-.65s-.77-.22-1.25-.22-.9.07-1.25.22-.62.36-.81.65-.29.62-.29,1,.1.72.29,1c.19.28.46.5.81.65s.77.22,1.25.22Z"/>
    <path class="st2" d="M51.33,6.7h2.63c.33,0,.59-.07.79-.21.19-.14.29-.33.29-.58s-.1-.44-.29-.58c-.19-.14-.46-.21-.79-.21h-2.88l.8-.78v5.9h-1.77V3.91h4.09c.52,0,.98.08,1.38.25.39.17.7.4.92.7.22.3.33.65.33,1.05s-.11.74-.33,1.04-.52.53-.92.7c-.39.17-.85.25-1.38.25h-2.87v-1.21h0ZM52.46,7.28h1.99l2.58,2.96h-2.05l-2.53-2.96h0Z"/>
    <path class="st2" d="M57.97,10.24V3.91h1.76v5.04l-.48-.32,4.16-4.72h1.87l-5.72,6.33s-1.59,0-1.59,0ZM61.33,7.18l1.27-.99,2.77,4.05h-2l-2.04-3.06Z"/>
    <path class="st2" d="M65.4,8.17h1.79c.03.19.13.36.29.51.16.15.38.26.65.34s.59.12.95.12c.52,0,.92-.06,1.22-.19s.45-.31.45-.55c0-.18-.09-.32-.26-.42-.17-.1-.49-.17-.96-.21l-1.36-.13c-.94-.08-1.62-.28-2.05-.59-.42-.31-.63-.73-.63-1.27,0-.42.14-.78.42-1.08.28-.3.67-.53,1.17-.68.5-.16,1.09-.24,1.76-.24s1.26.09,1.77.26.92.42,1.23.73c.31.31.47.67.5,1.09h-1.79c-.02-.17-.11-.32-.26-.44s-.34-.22-.59-.29-.54-.11-.89-.11c-.47,0-.85.06-1.13.18s-.42.29-.42.52c0,.17.08.3.25.4s.46.17.89.21l1.43.14c.66.06,1.18.16,1.57.29.39.14.68.32.85.56s.26.53.26.89c0,.43-.14.81-.43,1.13s-.7.58-1.22.76c-.52.18-1.13.27-1.82.27s-1.35-.09-1.89-.28-.96-.44-1.27-.77-.47-.71-.49-1.15h0Z"/>
    <path class="st2" d="M73.54,3.91h1.77v6.33h-1.77V3.91ZM74.52,6.33h5.35v1.4h-5.35v-1.4ZM79.12,3.91h1.77v6.33h-1.77V3.91Z"/>
    <path class="st2" d="M86.07,10.37c-.82,0-1.55-.14-2.17-.41s-1.1-.66-1.45-1.16c-.34-.49-.51-1.07-.51-1.73s.17-1.23.51-1.73c.34-.49.83-.88,1.45-1.16.62-.28,1.34-.41,2.17-.41s1.55.14,2.17.41c.62.28,1.1.66,1.45,1.16s.52,1.07.52,1.73-.17,1.23-.52,1.73-.83.88-1.45,1.16-1.34.41-2.17.41ZM86.07,8.95c.49,0,.91-.07,1.25-.22s.62-.36.81-.65c.19-.28.29-.62.29-1s-.1-.72-.29-1c-.19-.28-.46-.5-.81-.65s-.77-.22-1.25-.22-.9.07-1.25.22-.62.36-.81.65-.29.62-.29,1,.1.72.29,1,.46.5.81.65.76.22,1.25.22Z"/>
    <path class="st2" d="M95.14,3.91c.57,0,1.07.09,1.48.27s.73.43.96.75c.22.32.33.69.33,1.12s-.11.8-.33,1.12c-.22.32-.54.57-.96.75-.42.18-.91.27-1.48.27h-3.07v-1.29h2.98c.34,0,.6-.07.8-.22s.29-.36.29-.62-.1-.47-.29-.62-.46-.22-.8-.22h-2.82l.8-.74v5.78h-1.77V3.91h3.89-.01Z"/>
  </g>
</svg>